<?xml version="1.0" standalone="no"?>
<svg viewBox="0 0 200 200" xmlns="http://www.w3.org/2000/svg">
  <path fill="#0898E7" d="M40.9,-53C55.4,-54.3,71.2,-47,72.7,-35.6C74.3,-24.2,61.5,-8.6,54.9,4.9C48.2,18.3,47.7,29.5,41.4,34.8C35.2,40.1,23.3,39.4,11.6,45.5C0,51.7,-11.4,64.7,-24,67.5C-36.5,70.3,-50.2,62.9,-59.4,51.8C-68.6,40.7,-73.3,25.9,-76.9,10.2C-80.5,-5.6,-83.2,-22.4,-74,-30.2C-64.8,-38,-43.9,-36.9,-29.6,-35.7C-15.3,-34.5,-7.7,-33.2,2.8,-37.5C13.2,-41.8,26.4,-51.7,40.9,-53Z" transform="translate(100 100)" />
</svg>
